STARTFONT 2.1
COMMENT Created by Fondu from a mac NFNT/FONT resource
FONT -Fondu-Helvetica-Bold-R-Normal--10-100-75-75-P-47-MacRoman-1
SIZE 10 75 75
FONTBOUNDINGBOX 9 10 -1 -2
STARTPROPERTIES 18
FOUNDRY "Fondu"
FAMILY_NAME "Helvetica"
WEIGHT_NAME "Bold"
SLANT "R"
SETWIDTH_NAME "Normal"
ADD_STYLE_NAME ""
PIXEL_SIZE 10
POINT_SIZE 100
RESOLUTION_X 75
RESOLUTION_Y 75
SPACING "P"
AVERAGE_WIDTH 47
CHARSET_REGISTRY "MacRoman"
CHARSET_ENCODING "1"
FONT_ASCENT 8
FONT_DESCENT 2
FACE_NAME "HelveticaBold"
_GBDFED_INFO "Edited with gbdfed 1.6."
ENDPROPERTIES
CHARS 191
STARTCHAR space
ENCODING 32
SWIDTH 192 0
DWIDTH 2 0
BBX 0 0 0 0
BITMAP
ENDCHAR
STARTCHAR exclam
ENCODING 33
SWIDTH 288 0
DWIDTH 3 0
BBX 2 7 0 0
BITMAP
C0
C0
C0
80
00
80
80
ENDCHAR
STARTCHAR quotedbl
ENCODING 34
SWIDTH 384 0
DWIDTH 4 0
BBX 3 2 0 4
BITMAP
A0
A0
ENDCHAR
STARTCHAR numbersign
ENCODING 35
SWIDTH 576 0
DWIDTH 6 0
BBX 5 5 0 1
BITMAP
50
F8
50
F8
50
ENDCHAR
STARTCHAR dollar
ENCODING 36
SWIDTH 480 0
DWIDTH 5 0
BBX 4 8 0 -1
BITMAP
20
70
C0
E0
70
30
E0
40
ENDCHAR
STARTCHAR percent
ENCODING 37
SWIDTH 576 0
DWIDTH 6 0
BBX 5 6 0 0
BITMAP
68
B0
E0
38
68
B0
ENDCHAR
STARTCHAR ampersand
ENCODING 38
SWIDTH 576 0
DWIDTH 6 0
BBX 5 6 0 0
BITMAP
70
50
60
F8
D0
68
ENDCHAR
STARTCHAR quotesingle
ENCODING 39
SWIDTH 288 0
DWIDTH 3 0
BBX 1 3 1 5
BITMAP
80
80
80
ENDCHAR
STARTCHAR parenleft
ENCODING 40
SWIDTH 288 0
DWIDTH 3 0
BBX 2 8 0 -1
BITMAP
40
80
80
80
80
80
80
40
ENDCHAR
STARTCHAR parenright
ENCODING 41
SWIDTH 288 0
DWIDTH 3 0
BBX 2 8 0 -1
BITMAP
80
40
40
40
40
40
40
80
ENDCHAR
STARTCHAR asterisk
ENCODING 42
SWIDTH 384 0
DWIDTH 4 0
BBX 3 3 0 3
BITMAP
40
E0
40
ENDCHAR
STARTCHAR plus
ENCODING 43
SWIDTH 576 0
DWIDTH 6 0
BBX 5 5 0 0
BITMAP
20
20
F8
20
20
ENDCHAR
STARTCHAR comma
ENCODING 44
SWIDTH 288 0
DWIDTH 3 0
BBX 2 3 0 -1
BITMAP
40
40
80
ENDCHAR
STARTCHAR hyphen
ENCODING 45
SWIDTH 384 0
DWIDTH 4 0
BBX 3 1 0 2
BITMAP
E0
ENDCHAR
STARTCHAR period
ENCODING 46
SWIDTH 192 0
DWIDTH 2 0
BBX 1 2 0 0
BITMAP
80
80
ENDCHAR
STARTCHAR slash
ENCODING 47
SWIDTH 384 0
DWIDTH 4 0
BBX 3 6 0 0
BITMAP
20
20
40
40
80
80
ENDCHAR
STARTCHAR zero
ENCODING 48
SWIDTH 480 0
DWIDTH 5 0
BBX 4 6 0 0
BITMAP
60
D0
D0
D0
D0
60
ENDCHAR
STARTCHAR one
ENCODING 49
SWIDTH 480 0
DWIDTH 5 0
BBX 3 6 0 0
BITMAP
20
E0
60
60
60
60
ENDCHAR
STARTCHAR two
ENCODING 50
SWIDTH 480 0
DWIDTH 5 0
BBX 4 6 0 0
BITMAP
60
B0
30
60
C0
F0
ENDCHAR
STARTCHAR three
ENCODING 51
SWIDTH 480 0
DWIDTH 5 0
BBX 4 6 0 0
BITMAP
60
B0
60
30
B0
60
ENDCHAR
STARTCHAR four
ENCODING 52
SWIDTH 480 0
DWIDTH 5 0
BBX 5 6 0 0
BITMAP
30
50
D0
F8
30
30
ENDCHAR
STARTCHAR five
ENCODING 53
SWIDTH 480 0
DWIDTH 5 0
BBX 4 6 0 0
BITMAP
70
C0
E0
30
B0
60
ENDCHAR
STARTCHAR six
ENCODING 54
SWIDTH 480 0
DWIDTH 5 0
BBX 4 6 0 0
BITMAP
70
C0
E0
D0
D0
60
ENDCHAR
STARTCHAR seven
ENCODING 55
SWIDTH 480 0
DWIDTH 5 0
BBX 4 6 0 0
BITMAP
F0
30
30
60
40
C0
ENDCHAR
STARTCHAR eight
ENCODING 56
SWIDTH 480 0
DWIDTH 5 0
BBX 4 6 0 0
BITMAP
60
D0
60
D0
D0
60
ENDCHAR
STARTCHAR nine
ENCODING 57
SWIDTH 480 0
DWIDTH 5 0
BBX 4 6 0 0
BITMAP
60
B0
B0
70
30
E0
ENDCHAR
STARTCHAR colon
ENCODING 58
SWIDTH 192 0
DWIDTH 2 0
BBX 1 5 0 0
BITMAP
80
80
00
80
80
ENDCHAR
STARTCHAR semicolon
ENCODING 59
SWIDTH 288 0
DWIDTH 3 0
BBX 2 6 0 -1
BITMAP
40
40
00
40
40
80
ENDCHAR
STARTCHAR less
ENCODING 60
SWIDTH 384 0
DWIDTH 4 0
BBX 3 5 0 0
BITMAP
20
40
80
40
20
ENDCHAR
STARTCHAR equal
ENCODING 61
SWIDTH 480 0
DWIDTH 5 0
BBX 4 3 0 1
BITMAP
F0
00
F0
ENDCHAR
STARTCHAR greater
ENCODING 62
SWIDTH 384 0
DWIDTH 4 0
BBX 3 5 0 0
BITMAP
80
40
20
40
80
ENDCHAR
STARTCHAR question
ENCODING 63
SWIDTH 480 0
DWIDTH 5 0
BBX 4 7 0 0
BITMAP
E0
30
60
40
00
40
40
ENDCHAR
STARTCHAR at
ENCODING 64
SWIDTH 768 0
DWIDTH 8 0
BBX 7 7 0 -1
BITMAP
3C
42
9A
AA
AA
9C
40
ENDCHAR
STARTCHAR A
ENCODING 65
SWIDTH 576 0
DWIDTH 6 0
BBX 5 6 0 0
BITMAP
70
D8
D8
F8
D8
D8
ENDCHAR
STARTCHAR B
ENCODING 66
SWIDTH 576 0
DWIDTH 6 0
BBX 5 6 0 0
BITMAP
F0
D8
F0
D8
D8
F0
ENDCHAR
STARTCHAR C
ENCODING 67
SWIDTH 576 0
DWIDTH 6 0
BBX 5 6 0 0
BITMAP
78
C8
C0
C0
C8
78
ENDCHAR
STARTCHAR D
ENCODING 68
SWIDTH 576 0
DWIDTH 6 0
BBX 5 6 0 0
BITMAP
F0
D8
D8
D8
D8
F0
ENDCHAR
STARTCHAR E
ENCODING 69
SWIDTH 480 0
DWIDTH 5 0
BBX 4 6 0 0
BITMAP
F0
C0
F0
C0
C0
F0
ENDCHAR
STARTCHAR F
ENCODING 70
SWIDTH 480 0
DWIDTH 5 0
BBX 4 6 0 0
BITMAP
F0
C0
F0
C0
C0
C0
ENDCHAR
STARTCHAR G
ENCODING 71
SWIDTH 576 0
DWIDTH 6 0
BBX 5 6 0 0
BITMAP
78
C8
C0
D8
C8
78
ENDCHAR
STARTCHAR H
ENCODING 72
SWIDTH 576 0
DWIDTH 6 0
BBX 5 6 0 0
BITMAP
D8
D8
F8
D8
D8
D8
ENDCHAR
STARTCHAR I
ENCODING 73
SWIDTH 288 0
DWIDTH 3 0
BBX 2 6 0 0
BITMAP
C0
C0
C0
C0
C0
C0
ENDCHAR
STARTCHAR J
ENCODING 74
SWIDTH 480 0
DWIDTH 5 0
BBX 4 6 0 0
BITMAP
30
30
30
30
B0
60
ENDCHAR
STARTCHAR K
ENCODING 75
SWIDTH 672 0
DWIDTH 7 0
BBX 6 6 0 0
BITMAP
D8
D0
E0
F0
D8
CC
ENDCHAR
STARTCHAR L
ENCODING 76
SWIDTH 480 0
DWIDTH 5 0
BBX 4 6 0 0
BITMAP
C0
C0
C0
C0
C0
F0
ENDCHAR
STARTCHAR M
ENCODING 77
SWIDTH 768 0
DWIDTH 8 0
BBX 7 6 0 0
BITMAP
C6
C6
EE
FE
D6
D6
ENDCHAR
STARTCHAR N
ENCODING 78
SWIDTH 576 0
DWIDTH 6 0
BBX 5 6 0 0
BITMAP
C8
C8
E8
F8
D8
C8
ENDCHAR
STARTCHAR O
ENCODING 79
SWIDTH 576 0
DWIDTH 6 0
BBX 5 6 0 0
BITMAP
70
D8
C8
C8
D8
70
ENDCHAR
STARTCHAR P
ENCODING 80
SWIDTH 576 0
DWIDTH 6 0
BBX 5 6 0 0
BITMAP
F0
D8
D8
F0
C0
C0
ENDCHAR
STARTCHAR Q
ENCODING 81
SWIDTH 576 0
DWIDTH 6 0
BBX 6 7 0 -1
BITMAP
70
D8
C8
C8
D8
78
04
ENDCHAR
STARTCHAR R
ENCODING 82
SWIDTH 576 0
DWIDTH 6 0
BBX 5 6 0 0
BITMAP
F0
D8
D8
F0
D8
D8
ENDCHAR
STARTCHAR S
ENCODING 83
SWIDTH 576 0
DWIDTH 6 0
BBX 5 6 0 0
BITMAP
78
C0
F0
38
D8
70
ENDCHAR
STARTCHAR T
ENCODING 84
SWIDTH 576 0
DWIDTH 6 0
BBX 5 6 0 0
BITMAP
F8
60
60
60
60
60
ENDCHAR
STARTCHAR U
ENCODING 85
SWIDTH 576 0
DWIDTH 6 0
BBX 5 6 0 0
BITMAP
D8
D8
D8
D8
D8
70
ENDCHAR
STARTCHAR V
ENCODING 86
SWIDTH 576 0
DWIDTH 6 0
BBX 5 6 0 0
BITMAP
E8
68
68
68
70
20
ENDCHAR
STARTCHAR W
ENCODING 87
SWIDTH 864 0
DWIDTH 9 0
BBX 8 6 0 0
BITMAP
DB
DB
DB
DA
6C
6C
ENDCHAR
STARTCHAR X
ENCODING 88
SWIDTH 576 0
DWIDTH 6 0
BBX 5 6 0 0
BITMAP
D8
D8
70
70
D8
D8
ENDCHAR
STARTCHAR Y
ENCODING 89
SWIDTH 672 0
DWIDTH 7 0
BBX 6 6 0 0
BITMAP
EC
68
78
30
30
30
ENDCHAR
STARTCHAR Z
ENCODING 90
SWIDTH 576 0
DWIDTH 6 0
BBX 5 6 0 0
BITMAP
F8
18
30
60
C0
F8
ENDCHAR
STARTCHAR bracketleft
ENCODING 91
SWIDTH 288 0
DWIDTH 3 0
BBX 2 8 0 -1
BITMAP
C0
80
80
80
80
80
80
C0
ENDCHAR
STARTCHAR backslash
ENCODING 92
SWIDTH 384 0
DWIDTH 4 0
BBX 3 6 0 0
BITMAP
80
80
40
40
20
20
ENDCHAR
STARTCHAR bracketright
ENCODING 93
SWIDTH 288 0
DWIDTH 3 0
BBX 2 8 0 -1
BITMAP
C0
40
40
40
40
40
40
C0
ENDCHAR
STARTCHAR asciicircum
ENCODING 94
SWIDTH 480 0
DWIDTH 5 0
BBX 4 3 0 3
BITMAP
60
60
90
ENDCHAR
STARTCHAR underscore
ENCODING 95
SWIDTH 480 0
DWIDTH 5 0
BBX 5 1 0 0
BITMAP
F8
ENDCHAR
STARTCHAR grave
ENCODING 96
SWIDTH 288 0
DWIDTH 3 0
BBX 2 2 0 5
BITMAP
80
40
ENDCHAR
STARTCHAR a
ENCODING 97
SWIDTH 576 0
DWIDTH 6 0
BBX 5 5 0 0
BITMAP
E0
30
F0
B0
D8
ENDCHAR
STARTCHAR b
ENCODING 98
SWIDTH 480 0
DWIDTH 5 0
BBX 4 7 0 0
BITMAP
C0
C0
E0
D0
D0
D0
E0
ENDCHAR
STARTCHAR c
ENCODING 99
SWIDTH 384 0
DWIDTH 4 0
BBX 3 5 0 0
BITMAP
60
C0
C0
C0
60
ENDCHAR
STARTCHAR d
ENCODING 100
SWIDTH 480 0
DWIDTH 5 0
BBX 4 7 0 0
BITMAP
30
30
70
B0
B0
B0
70
ENDCHAR
STARTCHAR e
ENCODING 101
SWIDTH 480 0
DWIDTH 5 0
BBX 4 5 0 0
BITMAP
60
D0
F0
C0
60
ENDCHAR
STARTCHAR f
ENCODING 102
SWIDTH 480 0
DWIDTH 5 0
BBX 4 7 0 0
BITMAP
30
60
F0
60
60
60
60
ENDCHAR
STARTCHAR g
ENCODING 103
SWIDTH 480 0
DWIDTH 5 0
BBX 4 6 0 -1
BITMAP
D0
B0
B0
F0
30
E0
ENDCHAR
STARTCHAR h
ENCODING 104
SWIDTH 480 0
DWIDTH 5 0
BBX 4 7 0 0
BITMAP
C0
C0
E0
D0
D0
D0
D0
ENDCHAR
STARTCHAR i
ENCODING 105
SWIDTH 288 0
DWIDTH 3 0
BBX 2 7 0 0
BITMAP
C0
00
C0
C0
C0
C0
C0
ENDCHAR
STARTCHAR j
ENCODING 106
SWIDTH 384 0
DWIDTH 4 0
BBX 3 8 0 -1
BITMAP
60
00
60
60
60
60
60
C0
ENDCHAR
STARTCHAR k
ENCODING 107
SWIDTH 480 0
DWIDTH 5 0
BBX 4 7 0 0
BITMAP
C0
C0
D0
D0
E0
D0
D0
ENDCHAR
STARTCHAR l
ENCODING 108
SWIDTH 480 0
DWIDTH 5 0
BBX 4 7 0 0
BITMAP
E0
60
60
60
60
60
70
ENDCHAR
STARTCHAR m
ENCODING 109
SWIDTH 672 0
DWIDTH 7 0
BBX 6 5 0 0
BITMAP
E8
D4
D4
D4
D4
ENDCHAR
STARTCHAR n
ENCODING 110
SWIDTH 480 0
DWIDTH 5 0
BBX 4 5 0 0
BITMAP
E0
D0
D0
D0
D0
ENDCHAR
STARTCHAR o
ENCODING 111
SWIDTH 480 0
DWIDTH 5 0
BBX 4 5 0 0
BITMAP
60
D0
D0
D0
60
ENDCHAR
STARTCHAR p
ENCODING 112
SWIDTH 576 0
DWIDTH 6 0
BBX 5 7 0 -2
BITMAP
F0
D8
D8
D8
F0
C0
C0
ENDCHAR
STARTCHAR q
ENCODING 113
SWIDTH 576 0
DWIDTH 6 0
BBX 5 7 0 -2
BITMAP
78
D8
D8
D8
78
18
18
ENDCHAR
STARTCHAR r
ENCODING 114
SWIDTH 480 0
DWIDTH 5 0
BBX 4 5 0 0
BITMAP
B0
E0
C0
C0
C0
ENDCHAR
STARTCHAR s
ENCODING 115
SWIDTH 480 0
DWIDTH 5 0
BBX 4 5 0 0
BITMAP
70
C0
F0
30
E0
ENDCHAR
STARTCHAR t
ENCODING 116
SWIDTH 480 0
DWIDTH 5 0
BBX 4 7 0 0
BITMAP
20
60
F0
60
60
60
30
ENDCHAR
STARTCHAR u
ENCODING 117
SWIDTH 480 0
DWIDTH 5 0
BBX 4 5 0 0
BITMAP
D0
D0
D0
F0
50
ENDCHAR
STARTCHAR v
ENCODING 118
SWIDTH 480 0
DWIDTH 5 0
BBX 4 5 0 0
BITMAP
D0
D0
D0
60
40
ENDCHAR
STARTCHAR w
ENCODING 119
SWIDTH 576 0
DWIDTH 6 0
BBX 5 5 0 0
BITMAP
A8
A8
F8
F8
48
ENDCHAR
STARTCHAR x
ENCODING 120
SWIDTH 576 0
DWIDTH 6 0
BBX 5 5 0 0
BITMAP
D8
D8
70
D8
D8
ENDCHAR
STARTCHAR y
ENCODING 121
SWIDTH 480 0
DWIDTH 5 0
BBX 4 7 0 -2
BITMAP
D0
D0
D0
70
60
60
C0
ENDCHAR
STARTCHAR z
ENCODING 122
SWIDTH 480 0
DWIDTH 5 0
BBX 4 5 0 0
BITMAP
F0
30
60
C0
F0
ENDCHAR
STARTCHAR braceleft
ENCODING 123
SWIDTH 384 0
DWIDTH 4 0
BBX 3 8 0 -1
BITMAP
20
40
40
80
40
40
40
20
ENDCHAR
STARTCHAR bar
ENCODING 124
SWIDTH 288 0
DWIDTH 3 0
BBX 1 7 1 0
BITMAP
80
80
80
80
80
80
80
ENDCHAR
STARTCHAR braceright
ENCODING 125
SWIDTH 384 0
DWIDTH 4 0
BBX 3 8 0 -1
BITMAP
80
40
40
20
40
40
40
80
ENDCHAR
STARTCHAR asciitilde
ENCODING 126
SWIDTH 672 0
DWIDTH 7 0
BBX 6 2 0 2
BITMAP
64
98
ENDCHAR
STARTCHAR dagger
ENCODING 160
SWIDTH 192 0
DWIDTH 2 0
BBX 0 0 0 0
BITMAP
ENDCHAR
STARTCHAR degree
ENCODING 161
SWIDTH 288 0
DWIDTH 3 0
BBX 2 7 0 -1
BITMAP
40
40
00
40
C0
C0
C0
ENDCHAR
STARTCHAR cent
ENCODING 162
SWIDTH 480 0
DWIDTH 5 0
BBX 4 7 0 -1
BITMAP
20
20
F0
C0
F0
40
40
ENDCHAR
STARTCHAR sterling
ENCODING 163
SWIDTH 480 0
DWIDTH 5 0
BBX 4 6 0 0
BITMAP
30
50
C0
60
50
F0
ENDCHAR
STARTCHAR section
ENCODING 164
SWIDTH 576 0
DWIDTH 6 0
BBX 5 5 0 1
BITMAP
88
70
50
70
88
ENDCHAR
STARTCHAR bullet
ENCODING 165
SWIDTH 576 0
DWIDTH 6 0
BBX 5 6 0 0
BITMAP
58
D8
58
F8
30
30
ENDCHAR
STARTCHAR paragraph
ENCODING 166
SWIDTH 192 0
DWIDTH 2 0
BBX 1 6 0 0
BITMAP
80
80
00
80
80
80
ENDCHAR
STARTCHAR germandbls
ENCODING 167
SWIDTH 480 0
DWIDTH 5 0
BBX 4 8 0 -2
BITMAP
70
C0
E0
D0
50
30
B0
E0
ENDCHAR
STARTCHAR registered
ENCODING 168
SWIDTH 384 0
DWIDTH 4 0
BBX 3 1 0 5
BITMAP
A0
ENDCHAR
STARTCHAR copyright
ENCODING 169
SWIDTH 768 0
DWIDTH 8 0
BBX 7 7 0 0
BITMAP
7C
C6
BA
A2
BA
C6
7C
ENDCHAR
STARTCHAR trademark
ENCODING 170
SWIDTH 384 0
DWIDTH 4 0
BBX 3 5 0 2
BITMAP
E0
60
A0
00
E0
ENDCHAR
STARTCHAR acute
ENCODING 171
SWIDTH 576 0
DWIDTH 6 0
BBX 4 3 0 1
BITMAP
50
A0
50
ENDCHAR
STARTCHAR dieresis
ENCODING 172
SWIDTH 576 0
DWIDTH 6 0
BBX 4 2 0 2
BITMAP
F0
10
ENDCHAR
STARTCHAR notequal
ENCODING 173
SWIDTH 384 0
DWIDTH 4 0
BBX 3 1 0 2
BITMAP
E0
ENDCHAR
STARTCHAR AE
ENCODING 174
SWIDTH 672 0
DWIDTH 7 0
BBX 7 7 0 0
BITMAP
7C
C6
BA
B2
AA
C2
7C
ENDCHAR
STARTCHAR Oslash
ENCODING 175
SWIDTH 288 0
DWIDTH 3 0
BBX 2 1 0 5
BITMAP
C0
ENDCHAR
STARTCHAR infinity
ENCODING 176
SWIDTH 288 0
DWIDTH 3 0
BBX 3 3 0 3
BITMAP
E0
A0
E0
ENDCHAR
STARTCHAR plusminus
ENCODING 177
SWIDTH 384 0
DWIDTH 4 0
BBX 3 5 0 0
BITMAP
40
E0
40
00
E0
ENDCHAR
STARTCHAR lessequal
ENCODING 178
SWIDTH 192 0
DWIDTH 2 0
BBX 2 4 0 2
BITMAP
C0
40
80
C0
ENDCHAR
STARTCHAR greaterequal
ENCODING 179
SWIDTH 192 0
DWIDTH 2 0
BBX 2 4 0 2
BITMAP
C0
C0
40
80
ENDCHAR
STARTCHAR yen
ENCODING 180
SWIDTH 192 0
DWIDTH 2 0
BBX 2 2 0 5
BITMAP
40
80
ENDCHAR
STARTCHAR mu
ENCODING 181
SWIDTH 480 0
DWIDTH 5 0
BBX 4 7 0 -2
BITMAP
D0
D0
D0
F0
90
C0
C0
ENDCHAR
STARTCHAR partialdiff
ENCODING 182
SWIDTH 576 0
DWIDTH 6 0
BBX 5 8 0 -1
BITMAP
78
E8
E8
68
28
28
28
28
ENDCHAR
STARTCHAR summation
ENCODING 183
SWIDTH 192 0
DWIDTH 2 0
BBX 2 2 0 2
BITMAP
C0
C0
ENDCHAR
STARTCHAR product
ENCODING 184
SWIDTH 192 0
DWIDTH 2 0
BBX 2 2 0 -2
BITMAP
40
C0
ENDCHAR
STARTCHAR pi
ENCODING 185
SWIDTH 192 0
DWIDTH 2 0
BBX 2 4 0 2
BITMAP
40
C0
40
40
ENDCHAR
STARTCHAR integral
ENCODING 186
SWIDTH 384 0
DWIDTH 4 0
BBX 3 5 0 2
BITMAP
E0
A0
E0
00
E0
ENDCHAR
STARTCHAR ordfeminine
ENCODING 187
SWIDTH 576 0
DWIDTH 6 0
BBX 4 3 0 1
BITMAP
A0
50
A0
ENDCHAR
STARTCHAR ordmasculine
ENCODING 188
SWIDTH 672 0
DWIDTH 7 0
BBX 6 8 0 -1
BITMAP
44
C8
50
50
28
58
BC
08
ENDCHAR
STARTCHAR Omega
ENCODING 189
SWIDTH 672 0
DWIDTH 7 0
BBX 6 8 0 -1
BITMAP
44
C8
50
50
38
48
90
18
ENDCHAR
STARTCHAR ae
ENCODING 190
SWIDTH 672 0
DWIDTH 7 0
BBX 6 8 0 -1
BITMAP
C4
C8
50
A0
28
58
BC
08
ENDCHAR
STARTCHAR oslash
ENCODING 191
SWIDTH 480 0
DWIDTH 5 0
BBX 4 7 0 -2
BITMAP
40
40
00
40
40
C0
F0
ENDCHAR
STARTCHAR questiondown
ENCODING 192
SWIDTH 576 0
DWIDTH 6 0
BBX 5 8 0 0
BITMAP
20
00
70
D8
D8
F8
D8
D8
ENDCHAR
STARTCHAR exclamdown
ENCODING 193
SWIDTH 576 0
DWIDTH 6 0
BBX 5 8 0 0
BITMAP
20
00
70
D8
D8
F8
D8
D8
ENDCHAR
STARTCHAR logicalnot
ENCODING 194
SWIDTH 576 0
DWIDTH 6 0
BBX 5 8 0 0
BITMAP
50
00
70
D8
D8
F8
D8
D8
ENDCHAR
STARTCHAR radical
ENCODING 195
SWIDTH 576 0
DWIDTH 6 0
BBX 5 8 0 0
BITMAP
50
00
70
D8
D8
F8
D8
D8
ENDCHAR
STARTCHAR florin
ENCODING 196
SWIDTH 576 0
DWIDTH 6 0
BBX 5 8 0 0
BITMAP
50
00
70
D8
D8
F8
D8
D8
ENDCHAR
STARTCHAR approxequal
ENCODING 197
SWIDTH 576 0
DWIDTH 6 0
BBX 5 8 0 0
BITMAP
50
20
70
D8
D8
F8
D8
D8
ENDCHAR
STARTCHAR Delta
ENCODING 198
SWIDTH 768 0
DWIDTH 8 0
BBX 7 6 0 0
BITMAP
7E
38
5E
F8
D8
DE
ENDCHAR
STARTCHAR guillemotleft
ENCODING 199
SWIDTH 576 0
DWIDTH 6 0
BBX 5 8 0 -2
BITMAP
78
C8
C0
C0
C8
78
20
60
ENDCHAR
STARTCHAR guillemotright
ENCODING 200
SWIDTH 480 0
DWIDTH 5 0
BBX 4 8 0 0
BITMAP
20
00
F0
C0
F0
C0
C0
F0
ENDCHAR
STARTCHAR ellipsis
ENCODING 201
SWIDTH 480 0
DWIDTH 5 0
BBX 4 8 0 0
BITMAP
20
00
F0
C0
F0
C0
C0
F0
ENDCHAR
STARTCHAR nbspace
ENCODING 202
SWIDTH 480 0
DWIDTH 5 0
BBX 4 8 0 0
BITMAP
A0
00
F0
C0
F0
C0
C0
F0
ENDCHAR
STARTCHAR Agrave
ENCODING 203
SWIDTH 480 0
DWIDTH 5 0
BBX 4 8 0 0
BITMAP
A0
00
F0
C0
F0
C0
C0
F0
ENDCHAR
STARTCHAR Atilde
ENCODING 204
SWIDTH 192 0
DWIDTH 2 0
BBX 2 8 -1 0
BITMAP
40
00
40
40
40
40
40
40
ENDCHAR
STARTCHAR Otilde
ENCODING 205
SWIDTH 192 0
DWIDTH 2 0
BBX 2 8 0 0
BITMAP
80
00
80
80
80
80
80
80
ENDCHAR
STARTCHAR OE
ENCODING 206
SWIDTH 192 0
DWIDTH 2 0
BBX 3 8 -1 0
BITMAP
A0
00
40
40
40
40
40
40
ENDCHAR
STARTCHAR oe
ENCODING 207
SWIDTH 192 0
DWIDTH 2 0
BBX 3 8 -1 0
BITMAP
A0
00
40
40
40
40
40
40
ENDCHAR
STARTCHAR endash
ENCODING 208
SWIDTH 576 0
DWIDTH 6 0
BBX 5 6 0 0
BITMAP
70
58
E8
58
58
70
ENDCHAR
STARTCHAR emdash
ENCODING 209
SWIDTH 576 0
DWIDTH 6 0
BBX 5 8 0 0
BITMAP
50
00
C8
C8
E8
F8
D8
C8
ENDCHAR
STARTCHAR quotedblleft
ENCODING 210
SWIDTH 576 0
DWIDTH 6 0
BBX 5 8 0 0
BITMAP
20
00
70
D8
C8
C8
D8
70
ENDCHAR
STARTCHAR quotedblright
ENCODING 211
SWIDTH 576 0
DWIDTH 6 0
BBX 5 8 0 0
BITMAP
20
00
70
D8
C8
C8
D8
70
ENDCHAR
STARTCHAR quoteleft
ENCODING 212
SWIDTH 576 0
DWIDTH 6 0
BBX 5 8 0 0
BITMAP
50
00
70
D8
C8
C8
D8
70
ENDCHAR
STARTCHAR quoteright
ENCODING 213
SWIDTH 576 0
DWIDTH 6 0
BBX 5 8 0 0
BITMAP
50
00
70
D8
C8
C8
D8
70
ENDCHAR
STARTCHAR divide
ENCODING 214
SWIDTH 576 0
DWIDTH 6 0
BBX 5 8 0 0
BITMAP
50
00
70
D8
C8
C8
D8
70
ENDCHAR
STARTCHAR lozenge
ENCODING 215
SWIDTH 480 0
DWIDTH 5 0
BBX 5 4 0 1
BITMAP
D8
70
70
D8
ENDCHAR
STARTCHAR ydieresis
ENCODING 216
SWIDTH 576 0
DWIDTH 6 0
BBX 7 7 -1 -1
BITMAP
3A
6C
6C
74
6C
78
80
ENDCHAR
STARTCHAR Ydieresis
ENCODING 217
SWIDTH 576 0
DWIDTH 6 0
BBX 5 8 0 0
BITMAP
20
00
D8
D8
D8
D8
D8
70
ENDCHAR
STARTCHAR fraction
ENCODING 218
SWIDTH 576 0
DWIDTH 6 0
BBX 5 8 0 0
BITMAP
20
00
D8
D8
D8
D8
D8
70
ENDCHAR
STARTCHAR currency
ENCODING 219
SWIDTH 576 0
DWIDTH 6 0
BBX 5 8 0 0
BITMAP
50
00
D8
D8
D8
D8
D8
70
ENDCHAR
STARTCHAR guilsinglleft
ENCODING 220
SWIDTH 576 0
DWIDTH 6 0
BBX 5 8 0 0
BITMAP
50
00
D8
D8
D8
D8
D8
70
ENDCHAR
STARTCHAR guilsinglright
ENCODING 221
SWIDTH 672 0
DWIDTH 7 0
BBX 6 8 0 0
BITMAP
10
00
EC
68
68
78
30
30
ENDCHAR
STARTCHAR fi
ENCODING 222
SWIDTH 576 0
DWIDTH 6 0
BBX 5 6 0 0
BITMAP
C0
F0
D8
F0
C0
C0
ENDCHAR
STARTCHAR fl
ENCODING 223
SWIDTH 480 0
DWIDTH 5 0
BBX 4 6 0 0
BITMAP
E0
D0
E0
D0
D0
A0
ENDCHAR
STARTCHAR daggerdbl
ENCODING 224
SWIDTH 480 0
DWIDTH 5 0
BBX 5 8 0 0
BITMAP
40
20
00
E0
30
F0
B0
D8
ENDCHAR
STARTCHAR periodcentered
ENCODING 225
SWIDTH 480 0
DWIDTH 5 0
BBX 5 8 0 0
BITMAP
10
20
00
E0
30
F0
B0
D8
ENDCHAR
STARTCHAR quotesinglbase
ENCODING 226
SWIDTH 480 0
DWIDTH 5 0
BBX 5 8 0 0
BITMAP
40
A0
00
E0
30
F0
B0
D8
ENDCHAR
STARTCHAR quotedblbase
ENCODING 227
SWIDTH 480 0
DWIDTH 5 0
BBX 5 8 0 0
BITMAP
50
A0
00
E0
30
F0
B0
D8
ENDCHAR
STARTCHAR perthousand
ENCODING 228
SWIDTH 480 0
DWIDTH 5 0
BBX 5 7 0 0
BITMAP
A0
00
E0
30
F0
B0
D8
ENDCHAR
STARTCHAR Acircumflex
ENCODING 229
SWIDTH 480 0
DWIDTH 5 0
BBX 5 8 0 0
BITMAP
40
A0
40
E0
30
F0
B0
D8
ENDCHAR
STARTCHAR Ecircumflex
ENCODING 230
SWIDTH 672 0
DWIDTH 7 0
BBX 6 5 0 0
BITMAP
F8
34
7C
B0
7C
ENDCHAR
STARTCHAR Aacute
ENCODING 231
SWIDTH 384 0
DWIDTH 4 0
BBX 3 7 0 -2
BITMAP
60
C0
C0
C0
60
40
C0
ENDCHAR
STARTCHAR Edieresis
ENCODING 232
SWIDTH 480 0
DWIDTH 5 0
BBX 4 8 0 0
BITMAP
40
20
00
60
D0
F0
C0
60
ENDCHAR
STARTCHAR Egrave
ENCODING 233
SWIDTH 480 0
DWIDTH 5 0
BBX 4 8 0 0
BITMAP
10
20
00
60
D0
F0
C0
60
ENDCHAR
STARTCHAR Iacute
ENCODING 234
SWIDTH 480 0
DWIDTH 5 0
BBX 4 8 0 0
BITMAP
20
50
00
60
D0
F0
C0
60
ENDCHAR
STARTCHAR Icircumflex
ENCODING 235
SWIDTH 480 0
DWIDTH 5 0
BBX 4 7 0 0
BITMAP
50
00
60
D0
F0
C0
60
ENDCHAR
STARTCHAR Idieresis
ENCODING 236
SWIDTH 192 0
DWIDTH 2 0
BBX 2 8 -1 0
BITMAP
80
40
00
40
40
40
40
40
ENDCHAR
STARTCHAR Igrave
ENCODING 237
SWIDTH 192 0
DWIDTH 2 0
BBX 2 8 0 0
BITMAP
40
80
00
80
80
80
80
80
ENDCHAR
STARTCHAR Oacute
ENCODING 238
SWIDTH 192 0
DWIDTH 2 0
BBX 3 8 -1 0
BITMAP
40
A0
00
40
40
40
40
40
ENDCHAR
STARTCHAR Ocircumflex
ENCODING 239
SWIDTH 192 0
DWIDTH 2 0
BBX 3 7 -1 0
BITMAP
A0
00
40
40
40
40
40
ENDCHAR
STARTCHAR apple
ENCODING 240
SWIDTH 480 0
DWIDTH 5 0
BBX 4 7 0 0
BITMAP
D0
60
A0
70
D0
D0
60
ENDCHAR
STARTCHAR Ograve
ENCODING 241
SWIDTH 480 0
DWIDTH 5 0
BBX 4 8 0 0
BITMAP
50
A0
00
E0
F0
D0
D0
D0
ENDCHAR
STARTCHAR Uacute
ENCODING 242
SWIDTH 480 0
DWIDTH 5 0
BBX 4 8 0 0
BITMAP
40
20
00
60
D0
D0
D0
60
ENDCHAR
STARTCHAR Ucircumflex
ENCODING 243
SWIDTH 480 0
DWIDTH 5 0
BBX 4 8 0 0
BITMAP
10
20
00
60
D0
D0
D0
60
ENDCHAR
STARTCHAR Ugrave
ENCODING 244
SWIDTH 480 0
DWIDTH 5 0
BBX 4 8 0 0
BITMAP
20
50
00
60
D0
D0
D0
60
ENDCHAR
STARTCHAR dotlessi
ENCODING 245
SWIDTH 480 0
DWIDTH 5 0
BBX 4 8 0 0
BITMAP
50
A0
00
60
D0
D0
D0
60
ENDCHAR
STARTCHAR circumflex
ENCODING 246
SWIDTH 480 0
DWIDTH 5 0
BBX 4 7 0 0
BITMAP
50
00
60
D0
D0
D0
60
ENDCHAR
STARTCHAR tilde
ENCODING 247
SWIDTH 480 0
DWIDTH 5 0
BBX 5 5 0 0
BITMAP
20
00
F8
00
20
ENDCHAR
STARTCHAR macron
ENCODING 248
SWIDTH 480 0
DWIDTH 5 0
BBX 6 7 -1 -1
BITMAP
04
38
68
68
68
70
80
ENDCHAR
STARTCHAR breve
ENCODING 249
SWIDTH 480 0
DWIDTH 5 0
BBX 4 8 0 0
BITMAP
40
20
00
D0
D0
D0
F0
50
ENDCHAR
STARTCHAR dotaccent
ENCODING 250
SWIDTH 480 0
DWIDTH 5 0
BBX 4 8 0 0
BITMAP
10
20
00
D0
D0
D0
F0
50
ENDCHAR
STARTCHAR ring
ENCODING 251
SWIDTH 480 0
DWIDTH 5 0
BBX 4 8 0 0
BITMAP
20
50
00
D0
D0
D0
F0
50
ENDCHAR
STARTCHAR cedilla
ENCODING 252
SWIDTH 480 0
DWIDTH 5 0
BBX 4 7 0 0
BITMAP
50
00
D0
D0
D0
F0
50
ENDCHAR
STARTCHAR hungarumlaut
ENCODING 253
SWIDTH 480 0
DWIDTH 5 0
BBX 4 9 0 -1
BITMAP
10
20
00
D0
D0
D0
70
60
60
ENDCHAR
STARTCHAR ogonek
ENCODING 254
SWIDTH 480 0
DWIDTH 5 0
BBX 5 8 -1 -2
BITMAP
C0
70
68
68
68
70
60
70
ENDCHAR
STARTCHAR caron
ENCODING 255
SWIDTH 480 0
DWIDTH 5 0
BBX 4 8 -1 -1
BITMAP
50
00
D0
D0
D0
60
60
60
ENDCHAR
ENDFONT
